<svg width="44" height="53" viewBox="0 0 44 53" fill="none" xmlns="http://www.w3.org/2000/svg">
  <path
    d="M7.69048 15.5277C7.69048 12.576 7.69048 11.1001 8.28859 10.0154C8.814 9.06256 9.64765 8.31167 10.656 7.88302C11.8038 7.39508 13.2899 7.53238 16.2622 7.80699L29.1909 9.00147C31.7022 9.23349 32.9579 9.3495 33.9072 9.90768C34.7433 10.3993 35.4126 11.1258 35.8298 11.9946C36.3035 12.9812 36.3035 14.2282 36.3035 16.7222V36.2887C36.3035 38.7827 36.3035 40.0297 35.8298 41.0163C35.4126 41.8852 34.7433 42.6117 33.9072 43.1033C32.9579 43.6614 31.7022 43.7775 29.1909 44.0095L16.2621 45.2039C13.2899 45.4786 11.8038 45.6159 10.656 45.1279C9.64765 44.6993 8.814 43.9484 8.28859 42.9955C7.69048 41.9109 7.69048 40.435 7.69048 37.4832V15.5277Z"
    fill="white" fill-opacity="0.4" />
  <path fill-rule="evenodd" clip-rule="evenodd"
    d="M1.3171 5.67364C0.107788 7.91773 0.107788 10.9497 0.107788 17.0136V35.9864C0.107788 42.0503 0.107788 45.0823 1.3171 47.3264C2.3797 49.2982 4.06739 50.8611 6.11493 51.7693C8.44516 52.8029 11.4682 52.5704 17.5143 52.1053L28.9656 51.2244C34.2281 50.8196 36.8593 50.6172 38.8523 49.463C40.607 48.4466 42.0154 46.9257 42.8942 45.0981C43.8922 43.0226 43.8922 40.3836 43.8922 35.1055V17.8945C43.8922 12.6165 43.8922 9.97743 42.8942 7.90186C42.0154 6.07428 40.607 4.55341 38.8523 3.53705C36.8593 2.38277 34.2281 2.18037 28.9656 1.77556L17.5143 0.894689C11.4682 0.429606 8.44516 0.197065 6.11493 1.2307C4.06739 2.13893 2.3797 3.70179 1.3171 5.67364ZM8.29862 10.2396C7.68586 11.3676 7.68586 12.899 7.68586 15.9617V37.0383C7.68586 40.101 7.68586 41.6324 8.29862 42.7604C8.83696 43.7513 9.69137 44.5337 10.7258 44.9828C11.9033 45.4941 13.4287 45.3595 16.4796 45.0903H16.4796L28.9413 43.9907H28.9414C31.5433 43.7611 32.8443 43.6463 33.8285 43.0659C34.6952 42.5548 35.3895 41.7965 35.8225 40.8882C36.3142 39.8568 36.3142 38.5508 36.3142 35.9387V17.0613C36.3142 14.4492 36.3142 13.1432 35.8225 12.1118C35.3895 11.2035 34.6952 10.4452 33.8285 9.93408C32.8443 9.35367 31.5433 9.23887 28.9413 9.00929L16.4796 7.90972C13.4287 7.64053 11.9033 7.50593 10.7258 8.01718C9.69137 8.46633 8.83696 9.24868 8.29862 10.2396Z"
    fill="white" />
</svg>