<svg width="130" height="154" viewBox="0 0 130 154" fill="none" xmlns="http://www.w3.org/2000/svg">
<path d="M22.3549 44.3036C22.3549 35.6013 22.3549 31.2502 24.1181 28.0524C25.6671 25.2433 28.1249 23.0296 31.0976 21.7659C34.4815 20.3273 38.8628 20.7321 47.6253 21.5417L85.7412 25.0632C93.1448 25.7472 96.8466 26.0892 99.6454 27.7348C102.11 29.1841 104.083 31.3259 105.313 33.8875C106.71 36.7961 106.71 40.4724 106.71 47.8251V105.51C106.71 112.862 106.71 116.539 105.313 119.447C104.083 122.009 102.11 124.151 99.6454 125.6C96.8466 127.246 93.1448 127.588 85.7412 128.272L47.6253 131.793C38.8628 132.603 34.4815 133.008 31.0976 131.569C28.1249 130.305 25.6671 128.092 24.1181 125.282C22.3549 122.085 22.3549 117.734 22.3549 109.031V44.3036Z" fill="#1E1E1E"/>
<path d="M22.3549 44.3036C22.3549 35.6013 22.3549 31.2502 24.1181 28.0524C25.6671 25.2433 28.1249 23.0296 31.0976 21.7659C34.4815 20.3273 38.8628 20.7321 47.6253 21.5417L85.7412 25.0632C93.1448 25.7472 96.8466 26.0892 99.6454 27.7348C102.11 29.1841 104.083 31.3259 105.313 33.8875C106.71 36.7961 106.71 40.4724 106.71 47.8251V105.51C106.71 112.862 106.71 116.539 105.313 119.447C104.083 122.009 102.11 124.151 99.6454 125.6C96.8466 127.246 93.1448 127.588 85.7412 128.272L47.6253 131.793C38.8628 132.603 34.4815 133.008 31.0976 131.569C28.1249 130.305 25.6671 128.092 24.1181 125.282C22.3549 122.085 22.3549 117.734 22.3549 109.031V44.3036Z" fill="url(#paint0_linear_77_161)"/>
<path fill-rule="evenodd" clip-rule="evenodd" d="M3.56521 15.2526C0 21.8685 0 30.8072 0 48.6845V104.619C0 122.496 0 131.435 3.56521 138.051C6.6979 143.864 11.6735 148.471 17.7099 151.149C24.5797 154.196 33.4921 153.511 51.3168 152.14L85.0768 149.543C100.591 148.349 108.349 147.753 114.224 144.35C119.397 141.353 123.55 136.869 126.14 131.482C129.083 125.362 129.083 117.582 129.083 102.022V51.2814C129.083 35.721 129.083 27.9408 126.14 21.8217C123.55 16.4338 119.397 11.95 114.224 8.95364C108.349 5.55067 100.591 4.95396 85.0768 3.76052L51.3167 1.1636C33.4921 -0.207531 24.5797 -0.893095 17.7099 2.1542C11.6735 4.83181 6.6979 9.43934 3.56521 15.2526ZM24.1477 28.7138C22.3412 32.0392 22.3412 36.5539 22.3412 45.5833V107.72C22.3412 116.749 22.3412 121.264 24.1477 124.589C25.7348 127.511 28.2538 129.817 31.3034 131.142C34.7747 132.649 39.2719 132.252 48.2664 131.458H48.2664L85.0053 128.217H85.0055C92.6764 127.54 96.5118 127.201 99.4133 125.49C101.968 123.983 104.015 121.748 105.292 119.07C106.741 116.029 106.741 112.179 106.741 104.478V48.825C106.741 41.1242 106.741 37.2738 105.292 34.2332C104.015 31.5554 101.968 29.3199 99.4133 27.813C96.5118 26.1018 92.6763 25.7634 85.0053 25.0866L48.2664 21.8449C39.272 21.0513 34.7747 20.6545 31.3034 22.1617C28.2538 23.4858 25.7348 25.7923 24.1477 28.7138Z" fill="#EACB67"/>
<g style="mix-blend-mode:overlay">
<path d="M22.3613 44.2866C22.3613 35.5841 22.3613 31.2328 24.1247 28.0349C25.6738 25.2257 28.1317 23.0119 31.1045 21.7481C34.4886 20.3096 38.8702 20.7144 47.6332 21.524L85.7513 25.0456C93.1553 25.7296 96.8573 26.0716 99.6563 27.7173C102.121 29.1667 104.095 31.3085 105.325 33.8702C106.721 36.7789 106.721 40.4553 106.721 47.8083V105.495C106.721 112.848 106.721 116.524 105.325 119.433C104.095 121.995 102.121 124.137 99.6563 125.586C96.8573 127.232 93.1553 127.574 85.7513 128.258L47.6332 131.779C38.8702 132.589 34.4886 132.994 31.1045 131.555C28.1317 130.291 25.6738 128.078 24.1247 125.268C22.3613 122.07 22.3613 117.719 22.3613 109.017V44.2866Z" fill="url(#paint1_diamond_77_161)"/>
<path fill-rule="evenodd" clip-rule="evenodd" d="M3.56521 15.2526C0 21.8685 0 30.8072 0 48.6845V104.619C0 122.496 0 131.435 3.56521 138.051C6.6979 143.864 11.6735 148.471 17.7099 151.149C24.5797 154.196 33.4921 153.511 51.3168 152.14L85.0768 149.543C100.591 148.349 108.349 147.753 114.224 144.35C119.397 141.353 123.55 136.869 126.14 131.482C129.083 125.362 129.083 117.582 129.083 102.022V51.2814C129.083 35.721 129.083 27.9408 126.14 21.8217C123.55 16.4338 119.397 11.95 114.224 8.95364C108.349 5.55067 100.591 4.95396 85.0768 3.76052L51.3167 1.1636C33.4921 -0.207531 24.5797 -0.893095 17.7099 2.1542C11.6735 4.83181 6.6979 9.43933 3.56521 15.2526ZM24.1477 28.7138C22.3412 32.0392 22.3412 36.5539 22.3412 45.5833V107.72C22.3412 116.749 22.3412 121.264 24.1477 124.589C25.7348 127.511 28.2538 129.817 31.3034 131.142C34.7747 132.649 39.2719 132.252 48.2664 131.458L85.0053 128.217C92.6762 127.54 96.5118 127.201 99.4133 125.49C101.968 123.983 104.015 121.748 105.292 119.07C106.741 116.029 106.741 112.179 106.741 104.478V48.825C106.741 41.1242 106.741 37.2738 105.292 34.2332C104.015 31.5554 101.968 29.3199 99.4133 27.813C96.5118 26.1018 92.6763 25.7634 85.0053 25.0866L48.2664 21.8449C39.272 21.0513 34.7747 20.6545 31.3034 22.1617C28.2538 23.4858 25.7348 25.7923 24.1477 28.7138Z" fill="url(#paint2_diamond_77_161)"/>
</g>
<defs>
<linearGradient id="paint0_linear_77_161" x1="20.0815" y1="16.1432" x2="135.574" y2="100.975" gradientUnits="userSpaceOnUse">
<stop stop-color="#174CAC"/>
<stop offset="1" stop-color="#6EBEEC"/>
</linearGradient>
<radialGradient id="paint1_diamond_77_161" cx="0" cy="0" r="1" gradientUnits="userSpaceOnUse" gradientTransform="translate(70 2) rotate(92.0662) scale(151.402 127.482)">
<stop offset="0.145808" stop-color="white"/>
<stop offset="0.641257" stop-color="white" stop-opacity="0.44"/>
<stop offset="1" stop-color="#320E62" stop-opacity="0.4"/>
</radialGradient>
<radialGradient id="paint2_diamond_77_161" cx="0" cy="0" r="1" gradientUnits="userSpaceOnUse" gradientTransform="translate(70 2) rotate(92.0662) scale(151.402 127.482)">
<stop offset="0.145808" stop-color="white"/>
<stop offset="0.641257" stop-color="white" stop-opacity="0.44"/>
<stop offset="1" stop-color="#320E62" stop-opacity="0.4"/>
</radialGradient>
</defs>
</svg>
